<svg width="31" height="30" viewBox="0 0 31 30" fill="none" xmlns="http://www.w3.org/2000/svg">
<g clip-path="url(#clip0_1939_67)">
<path d="M3.0531 14.9415C3.0531 20.0151 6.00164 24.3998 10.2772 26.4776L4.16286 9.72488C3.45164 11.319 3.0531 13.0832 3.0531 14.9415ZM24.5243 14.2946C24.5243 12.7105 23.9553 11.6134 23.4672 10.7595C22.8175 9.70366 22.2085 8.80951 22.2085 7.75366C22.2085 6.57537 23.1021 5.47854 24.3609 5.47854C24.4177 5.47854 24.4716 5.48561 24.527 5.48878C22.2465 3.39951 19.2082 2.1239 15.8712 2.1239C11.3931 2.1239 7.45335 4.42146 5.16139 7.90146C5.46213 7.91049 5.74554 7.91683 5.98627 7.91683C7.327 7.91683 9.40237 7.75415 9.40237 7.75415C10.0933 7.71341 10.1748 8.72829 9.48457 8.81C9.48457 8.81 8.79017 8.89171 8.01749 8.93219L12.6853 22.8163L15.4904 14.4034L13.4933 8.93171C12.8031 8.89122 12.1492 8.80951 12.1492 8.80951C11.4585 8.76902 11.5394 7.71293 12.2302 7.75366C12.2302 7.75366 14.347 7.91634 15.6065 7.91634C16.947 7.91634 19.0226 7.75366 19.0226 7.75366C19.7141 7.71293 19.7953 8.72781 19.1048 8.80951C19.1048 8.80951 18.409 8.89122 17.6377 8.93171L22.2699 22.7107L23.5485 18.4383C24.1026 16.6654 24.5243 15.392 24.5243 14.2946ZM16.096 16.0627L12.2502 27.238C13.3985 27.5756 14.6129 27.7602 15.8712 27.7602C17.3638 27.7602 18.7953 27.5022 20.1277 27.0337C20.0933 26.9788 20.0621 26.9205 20.0365 26.8571L16.096 16.0627ZM27.1185 8.79171C27.1736 9.2 27.2048 9.63829 27.2048 10.1098C27.2048 11.4105 26.9619 12.8727 26.2302 14.701L22.3148 26.0212C26.1255 23.799 28.6887 19.6705 28.6887 14.9417C28.689 12.7132 28.1197 10.6176 27.1185 8.79171ZM15.8712 0C7.63237 0 0.929199 6.70268 0.929199 14.9415C0.929199 23.1812 7.63237 29.8837 15.8712 29.8837C24.1097 29.8837 30.8138 23.1812 30.8138 14.9415C30.8136 6.70268 24.1097 0 15.8712 0ZM15.8712 29.1988C8.01017 29.1988 1.61432 22.8029 1.61432 14.9415C1.61432 7.08049 8.00993 0.685122 15.8712 0.685122C23.7319 0.685122 30.1272 7.08049 30.1272 14.9415C30.1272 22.8029 23.7319 29.1988 15.8712 29.1988Z" fill="#52C3D6"/>
</g>
<defs>
<clipPath id="clip0_1939_67">
<rect width="30" height="30" fill="white" transform="translate(0.929199)"/>
</clipPath>
</defs>
</svg>
